# xmcd CD database file
#
# Track frame offsets:
#	150
#	20992
#	49022
#	81505
#	108219
#	132489
#	157429
#	187917
#	225959
#	240560
#
# Disc length: 3801 seconds
#
# Revision: 0
# Processed by: cddbd v1.5.2PL0 Copyright (c) Steve Scherf et al.
# Submitted via: CDex 1.51
#
DISCID=820ed70a
DTITLE=subtractiveLAD - Life At The End Of The World
DYEAR=2010
DGENRE=New Age
TTITLE0=Beginning Again
TTITLE1=Those Who Lose Dreaming Are Lost
TTITLE2=Summer In Your Mouth
TTITLE3=Ne Plus Ultra
TTITLE4=The Deep And Lovely Quiet
TTITLE5=Nautilus
TTITLE6=With Eternal Lids Apart
TTITLE7=Once The Stars Have Been Washed From The Sky
TTITLE8=Life At The End Of The World
TTITLE9=Always Ending
EXTD=YEAR: 2010
EXTT0=
EXTT1=
EXTT2=
EXTT3=
EXTT4=
EXTT5=
EXTT6=
EXTT7=
EXTT8=
EXTT9=
PLAYORDER=
